HIERARCHY
ROOT hips_JNT
{
	OFFSET 0.000000 0.000000 0.000000
	CHANNELS 6 Xposition Yposition Zposition Zrotation Xrotation Yrotation
	JOINT spine_JNT
	{
		OFFSET -0.000424 -2.543419 9.319810
		CHANNELS 6 Xposition Yposition Zposition Zrotation Xrotation Yrotation
		JOINT spine1_JNT
		{
			OFFSET 0.000000 0.000046 10.873099
			CHANNELS 6 Xposition Yposition Zposition Zrotation Xrotation Yrotation
			JOINT spine2_JNT
			{
				OFFSET 0.000000 5.951161 12.426399
				CHANNELS 6 Xposition Yposition Zposition Zrotation Xrotation Yrotation
				JOINT neck_JNT
				{
					OFFSET 0.000000 1.460481 13.979698
					CHANNELS 6 Xposition Yposition Zposition Zrotation Xrotation Yrotation
					JOINT head_JNT
					{
						OFFSET 0.000000 -2.091499 5.870201
						CHANNELS 6 Xposition Yposition Zposition Zrotation Xrotation Yrotation
						End Site
						{
							OFFSET 0.000000 0.000000 0.099998
						}
					}
				}
				JOINT l_shoulder_JNT
				{
					OFFSET 4.399140 1.485011 12.861000
					CHANNELS 6 Xposition Yposition Zposition Zrotation Xrotation Yrotation
					JOINT l_arm_JNT
					{
						OFFSET 8.757349 0.049052 -2.311981
						CHANNELS 6 Xposition Yposition Zposition Zrotation Xrotation Yrotation
						JOINT l_forearm_JNT
						{
							OFFSET 26.900103 -0.000013 -0.000046
							CHANNELS 6 Xposition Yposition Zposition Zrotation Xrotation Yrotation
							JOINT l_hand_JNT
							{
								OFFSET 23.014801 0.000004 -0.000046
								CHANNELS 6 Xposition Yposition Zposition Zrotation Xrotation Yrotation
								JOINT l_handThumb1_JNT
								{
									OFFSET 3.629997 -2.130000 -0.779999
									CHANNELS 6 Xposition Yposition Zposition Zrotation Xrotation Yrotation
									JOINT l_handThumb2_JNT
									{
										OFFSET 3.551140 -2.240060 -2.118370
										CHANNELS 6 Xposition Yposition Zposition Zrotation Xrotation Yrotation
										JOINT l_handThumb3_JNT
										{
											OFFSET 2.159111 -0.963467 -1.116310
											CHANNELS 6 Xposition Yposition Zposition Zrotation Xrotation Yrotation
											End Site
											{
												OFFSET 0.000000 0.000000 0.099998
											}
										}
									}
								}
								JOINT l_handIndex1_JNT
								{
									OFFSET 10.514900 -2.197570 -0.041019
									CHANNELS 6 Xposition Yposition Zposition Zrotation Xrotation Yrotation
									JOINT l_handIndex2_JNT
									{
										OFFSET 2.751831 0.139054 -0.102867
										CHANNELS 6 Xposition Yposition Zposition Zrotation Xrotation Yrotation
										JOINT l_handIndex3_JNT
										{
											OFFSET 2.353012 0.090487 -0.073399
											CHANNELS 6 Xposition Yposition Zposition Zrotation Xrotation Yrotation
											End Site
											{
												OFFSET 0.000000 0.000000 0.099998
											}
										}
									}
								}
								JOINT l_handMiddle1_JNT
								{
									OFFSET 10.067101 -0.059573 0.139202
									CHANNELS 6 Xposition Yposition Zposition Zrotation Xrotation Yrotation
									JOINT l_handMiddle2_JNT
									{
										OFFSET 3.909027 0.119066 -0.288403
										CHANNELS 6 Xposition Yposition Zposition Zrotation Xrotation Yrotation
										JOINT l_handMiddle3_JNT
										{
											OFFSET 2.328400 0.059440 -0.019108
											CHANNELS 6 Xposition Yposition Zposition Zrotation Xrotation Yrotation
											End Site
											{
												OFFSET 0.000000 0.000000 0.099998
											}
										}
									}
								}
								JOINT l_handRing1_JNT
								{
									OFFSET 9.468109 1.809830 0.132240
									CHANNELS 6 Xposition Yposition Zposition Zrotation Xrotation Yrotation
									JOINT l_handRing2_JNT
									{
										OFFSET 3.281532 0.033937 -0.224052
										CHANNELS 6 Xposition Yposition Zposition Zrotation Xrotation Yrotation
										JOINT l_handRing3_JNT
										{
											OFFSET 2.245003 0.008389 -0.070213
											CHANNELS 6 Xposition Yposition Zposition Zrotation Xrotation Yrotation
											End Site
											{
												OFFSET 0.000000 0.000000 0.099998
											}
										}
									}
								}
								JOINT l_handPinky1_JNT
								{
									OFFSET 8.490768 3.584150 -0.077770
									CHANNELS 6 Xposition Yposition Zposition Zrotation Xrotation Yrotation
									JOINT l_handPinky2_JNT
									{
										OFFSET 2.532173 0.017040 -0.073074
										CHANNELS 6 Xposition Yposition Zposition Zrotation Xrotation Yrotation
										JOINT l_handPinky3_JNT
										{
											OFFSET 1.951210 -0.017009 0.025116
											CHANNELS 6 Xposition Yposition Zposition Zrotation Xrotation Yrotation
											End Site
											{
												OFFSET 0.000000 0.000000 0.099998
											}
										}
									}
								}
							}
						}
					}
				}
				JOINT r_shoulder_JNT
				{
					OFFSET -4.397820 1.485011 12.860600
					CHANNELS 6 Xposition Yposition Zposition Zrotation Xrotation Yrotation
					JOINT r_arm_JNT
					{
						OFFSET -8.757320 0.049050 -2.312000
						CHANNELS 6 Xposition Yposition Zposition Zrotation Xrotation Yrotation
						JOINT r_forearm_JNT
						{
							OFFSET -26.900000 -0.000010 0.000000
							CHANNELS 6 Xposition Yposition Zposition Zrotation Xrotation Yrotation
							JOINT r_hand_JNT
							{
								OFFSET -23.014900 0.000000 0.000000
								CHANNELS 6 Xposition Yposition Zposition Zrotation Xrotation Yrotation
								JOINT r_handThumb1_JNT
								{
									OFFSET -3.629997 -2.130000 -0.779999
									CHANNELS 6 Xposition Yposition Zposition Zrotation Xrotation Yrotation
									JOINT r_handThumb2_JNT
									{
										OFFSET -3.551201 -2.240060 -2.118000
										CHANNELS 6 Xposition Yposition Zposition Zrotation Xrotation Yrotation
										JOINT r_handThumb3_JNT
										{
											OFFSET -2.159103 -0.963467 -1.116001
											CHANNELS 6 Xposition Yposition Zposition Zrotation Xrotation Yrotation
											End Site
											{
												OFFSET 0.000000 0.000000 0.099998
											}
										}
									}
								}
								JOINT r_handIndex1_JNT
								{
									OFFSET -10.514900 -2.197560 -0.040997
									CHANNELS 6 Xposition Yposition Zposition Zrotation Xrotation Yrotation
									JOINT r_handIndex2_JNT
									{
										OFFSET -2.751801 0.139050 -0.102997
										CHANNELS 6 Xposition Yposition Zposition Zrotation Xrotation Yrotation
										JOINT r_handIndex3_JNT
										{
											OFFSET -2.352997 0.090490 -0.073006
											CHANNELS 6 Xposition Yposition Zposition Zrotation Xrotation Yrotation
											End Site
											{
												OFFSET 0.000000 0.000000 0.099998
											}
										}
									}
								}
								JOINT r_handMiddle1_JNT
								{
									OFFSET -10.067101 -0.059570 0.139999
									CHANNELS 6 Xposition Yposition Zposition Zrotation Xrotation Yrotation
									JOINT r_handMiddle2_JNT
									{
										OFFSET -3.909103 0.119070 -0.288998
										CHANNELS 6 Xposition Yposition Zposition Zrotation Xrotation Yrotation
										JOINT r_handMiddle3_JNT
										{
											OFFSET -2.328400 0.059440 -0.019001
											CHANNELS 6 Xposition Yposition Zposition Zrotation Xrotation Yrotation
											End Site
											{
												OFFSET 0.000000 0.000000 0.099998
											}
										}
									}
								}
								JOINT r_handRing1_JNT
								{
									OFFSET -9.468102 1.809830 0.133003
									CHANNELS 6 Xposition Yposition Zposition Zrotation Xrotation Yrotation
									JOINT r_handRing2_JNT
									{
										OFFSET -3.281601 0.033939 -0.224995
										CHANNELS 6 Xposition Yposition Zposition Zrotation Xrotation Yrotation
										JOINT r_handRing3_JNT
										{
											OFFSET -2.245003 0.008390 -0.070000
											CHANNELS 6 Xposition Yposition Zposition Zrotation Xrotation Yrotation
											End Site
											{
												OFFSET 0.000000 0.000000 0.099998
											}
										}
									}
								}
								JOINT r_handPinky1_JNT
								{
									OFFSET -8.490799 3.584149 -0.076996
									CHANNELS 6 Xposition Yposition Zposition Zrotation Xrotation Yrotation
									JOINT r_handPinky2_JNT
									{
										OFFSET -2.532204 0.017040 -0.074005
										CHANNELS 6 Xposition Yposition Zposition Zrotation Xrotation Yrotation
										JOINT r_handPinky3_JNT
										{
											OFFSET -1.951202 -0.017010 0.026001
											CHANNELS 6 Xposition Yposition Zposition Zrotation Xrotation Yrotation
											End Site
											{
												OFFSET 0.000000 0.000000 0.099998
											}
										}
									}
								}
							}
						}
					}
				}
			}
		}
	}
	JOINT l_upleg_JNT
	{
		OFFSET 10.061400 0.706233 -5.185750
		CHANNELS 6 Xposition Yposition Zposition Zrotation Xrotation Yrotation
		JOINT l_leg_JNT
		{
			OFFSET -0.348572 0.819165 -45.582401
			CHANNELS 6 Xposition Yposition Zposition Zrotation Xrotation Yrotation
			JOINT l_foot_JNT
			{
				OFFSET 0.349145 1.708487 -42.332497
				CHANNELS 6 Xposition Yposition Zposition Zrotation Xrotation Yrotation
				JOINT l_toebase_JNT
				{
					OFFSET 0.070271 -12.888700 -8.126663
					CHANNELS 6 Xposition Yposition Zposition Zrotation Xrotation Yrotation
					End Site
					{
						OFFSET 0.000000 0.000000 0.099998
					}
				}
			}
		}
	}
	JOINT r_upleg_JNT
	{
		OFFSET -10.061000 0.706233 -5.185770
		CHANNELS 6 Xposition Yposition Zposition Zrotation Xrotation Yrotation
		JOINT r_leg_JNT
		{
			OFFSET 0.348580 0.819162 -45.582405
			CHANNELS 6 Xposition Yposition Zposition Zrotation Xrotation Yrotation
			JOINT r_foot_JNT
			{
				OFFSET -0.349180 1.708487 -42.332504
				CHANNELS 6 Xposition Yposition Zposition Zrotation Xrotation Yrotation
				JOINT r_toebase_JNT
				{
					OFFSET -0.070200 -12.888700 -8.126663
					CHANNELS 6 Xposition Yposition Zposition Zrotation Xrotation Yrotation
					End Site
					{
						OFFSET 0.000000 0.000000 0.099998
					}
				}
			}
		}
	}
}
MOTION
Frames: 4
Frame Time: 0.041667
-9.185720 17.348686 90.462631 36.485621 3.524889 7.776783 -0.000424 -2.543422 9.319828 0.000671 -0.048143 0.802860 0.000000 0.000048 10.873082 0.000002 0.000002 0.000001 -0.000001 5.951162 12.426401 9.998232 -0.006310 -5.161048 -0.000001 1.460481 13.979701 -2.134829 -4.027796 -2.788985 -0.000001 -2.091509 5.870213 4.568349 26.862547 -14.535561 4.399136 1.485011 12.861012 0.000002 0.000001 -0.000001 8.757341 0.049052 -2.311986 -53.157351 -9.563056 -17.393963 26.900105 -0.000016 -0.000019 -12.266501 3.936238 -35.468117 23.014816 -0.000002 -0.000030 9.700440 14.027624 47.227585 3.629986 -2.130002 -0.779983 -0.000002 0.000005 -0.000001 3.551139 -2.240052 -2.118374 0.000003 -0.000004 0.000003 2.159120 -0.963471 -1.116323 0.000002 0.000002 0.000001 10.514900 -2.197571 -0.041023 -0.000000 0.000001 -0.000000 2.751823 0.139054 -0.102870 0.000000 0.000000 -0.000001 2.353012 0.090489 -0.073399 0.000000 -0.000000 0.000000 10.067093 -0.059577 0.139214 0.000000 0.000000 -0.000001 3.909019 0.119062 -0.288395 0.000000 0.000000 -0.000000 2.328400 0.059437 -0.019096 -0.000000 -0.000000 0.000000 9.468110 1.809827 0.132251 0.000000 -0.000000 0.000000 3.281525 0.033937 -0.224052 -0.000000 0.000000 -0.000001 2.245003 0.008388 -0.070221 -0.000000 0.000000 0.000000 8.490776 3.584148 -0.077755 0.000000 0.000000 0.000000 2.532173 0.017037 -0.073067 0.000000 0.000000 0.000000 1.951218 -0.017006 0.025097 0.000000 0.000000 -0.000000 -4.397822 1.485011 12.860600 -0.000002 0.000000 0.000000 -8.757327 0.049051 -2.312015 104.231405 -72.890215 -15.417214 -26.900000 -0.000011 -0.000007 61.590896 -0.581311 -0.975358 -23.014900 0.000011 -0.000007 -90.000030 -0.000014 134.999891 -3.629991 -2.129999 -0.780005 0.000004 0.000002 0.000001 -3.551200 -2.240069 -2.118007 -0.000000 -0.000002 -0.000006 -2.159120 -0.963477 -1.116009 -0.000006 -0.000003 0.000000 -10.514871 -2.197548 -0.041002 0.000004 0.000003 0.000002 -2.751810 0.139051 -0.102994 -0.000003 -0.000000 0.000002 -2.352996 0.090483 -0.073011 -0.000005 -0.000002 -0.000001 -10.067101 -0.059571 0.139998 0.000000 0.000002 0.000002 -3.909103 0.119079 -0.289004 0.000000 0.000001 0.000001 -2.328393 0.059442 -0.019002 0.000000 0.000003 0.000002 -9.468096 1.809844 0.133001 0.000005 0.000004 0.000004 -3.281617 0.033925 -0.224990 -0.000002 -0.000001 -0.000002 -2.244996 0.008404 -0.070002 -0.000000 0.000002 0.000001 -8.490785 3.584151 -0.076997 0.000002 0.000003 0.000002 -2.532213 0.017031 -0.074013 -0.000002 -0.000001 -0.000000 -1.951202 -0.017002 0.026001 -0.000000 -0.000002 0.000001 10.061401 0.706232 -5.185734 -25.763178 -37.272264 -29.426624 -0.348571 0.819164 -45.582390 178.075162 138.513409 -178.194103 0.349145 1.708494 -42.332497 -10.687475 -5.788159 13.371552 0.070267 -12.888700 -8.126669 -0.314034 -0.821493 -0.002236 -10.061000 0.706230 -5.185755 12.049500 -1.501136 24.170595 0.348585 0.819160 -45.582417 -2.164141 1.842429 -0.315691 -0.349182 1.708491 -42.332497 -1.965988 34.510398 7.394316 -0.070198 -12.888713 -8.126662 14.150888 -32.111154 4.090549 
-10.967000 17.191387 90.032631 39.241930 4.805356 7.554311 -0.000426 -2.543421 9.319812 0.001313 -0.044818 1.681890 0.000001 0.000047 10.873101 -0.000001 0.000003 0.000001 0.000001 5.951156 12.426404 8.408577 0.009506 -5.621462 -0.000001 1.460481 13.979698 -2.581304 -6.613298 -3.333649 0.000002 -2.091496 5.870208 4.316010 27.538865 -13.481141 4.399137 1.485014 12.861004 0.000001 -0.000000 -0.000002 8.757350 0.049049 -2.311981 -52.619583 -9.630282 -17.462890 26.900106 -0.000011 -0.000047 -11.342063 4.279438 -41.237308 23.014811 -0.000001 -0.000026 7.199415 12.228257 52.427934 3.629999 -2.130000 -0.780023 -0.000000 -0.000002 0.000001 3.551136 -2.240052 -2.118379 0.000006 -0.000004 0.000001 2.159111 -0.963477 -1.116313 -0.000001 0.000004 0.000002 10.514908 -2.197570 -0.041038 -0.000000 0.000001 -0.000000 2.751823 0.139053 -0.102863 0.000001 0.000000 -0.000000 2.353020 0.090484 -0.073406 0.000000 0.000000 0.000000 10.067107 -0.059573 0.139192 -0.000000 0.000000 -0.000001 3.909019 0.119067 -0.288396 -0.000000 0.000000 0.000000 2.328392 0.059439 -0.019123 -0.000000 0.000000 0.000000 9.468118 1.809830 0.132221 -0.000000 0.000000 -0.000000 3.281517 0.033938 -0.224029 -0.000000 -0.000000 -0.000000 2.245003 0.008386 -0.070206 0.000000 0.000000 -0.000000 8.490776 3.584150 -0.077778 0.000000 0.000000 0.000000 2.532173 0.017043 -0.073105 0.000000 0.000000 0.000000 1.951218 -0.017009 0.025101 -0.000000 0.000000 -0.000000 -4.397821 1.485011 12.860600 -0.000001 -0.000001 0.000002 -8.757318 0.049049 -2.311981 114.224436 -55.608617 -5.711241 -26.900000 0.000001 -0.000007 56.293197 2.505140 4.680625 -23.014914 -0.000002 -0.000009 -90.000023 -0.000020 130.204306 -3.629993 -2.130003 -0.780001 0.000001 -0.000003 -0.000002 -3.551217 -2.240064 -2.118012 -0.000003 -0.000004 0.000003 -2.159111 -0.963463 -1.116013 -0.000000 -0.000003 0.000003 -10.514887 -2.197557 -0.040995 -0.000000 -0.000001 -0.000002 -2.751810 0.139036 -0.103005 -0.000004 0.000001 -0.000000 -2.352997 0.090485 -0.073011 0.000002 0.000000 -0.000001 -10.067109 -0.059575 0.139995 0.000003 -0.000002 -0.000000 -3.909095 0.119064 -0.288996 0.000006 -0.000001 -0.000001 -2.328394 0.059436 -0.018997 0.000006 -0.000001 0.000000 -9.468094 1.809840 0.133003 -0.000000 -0.000002 -0.000003 -3.281608 0.033933 -0.224986 0.000002 -0.000001 0.000001 -2.245003 0.008402 -0.070006 0.000001 -0.000000 -0.000004 -8.490770 3.584155 -0.076997 0.000002 -0.000002 -0.000000 -2.532195 0.017066 -0.074013 -0.000003 0.000002 -0.000000 -1.951203 -0.016999 0.025998 0.000003 0.000002 -0.000002 10.061399 0.706231 -5.185749 -24.963554 -39.902549 -30.105138 -0.348570 0.819163 -45.582397 177.859834 140.302727 -178.093576 0.349144 1.708494 -42.332497 -14.935867 -3.926411 13.531935 0.070270 -12.888700 -8.126671 -0.309008 -0.821600 -0.002167 -10.061001 0.706232 -5.185770 15.431615 -8.554875 23.884695 0.348582 0.819168 -45.582401 -0.860506 20.998370 -0.132008 -0.349178 1.708485 -42.332500 -1.788085 24.839224 4.611806 -0.070200 -12.888714 -8.126655 15.067698 -35.709465 4.877719 
-12.781500 17.023884 89.328827 42.793833 6.471101 7.195505 -0.000422 -2.543422 9.319796 0.001532 -0.033305 2.636799 0.000004 0.000047 10.873099 0.000001 0.000003 -0.000001 -0.000003 5.951155 12.426383 5.729425 0.018430 -6.046181 -0.000001 1.460483 13.979714 -3.885296 -9.029484 -4.963201 -0.000002 -2.091491 5.870194 3.547435 28.179264 -10.904162 4.399137 1.485015 12.861015 0.000002 -0.000001 -0.000002 8.757351 0.049052 -2.311964 -52.396874 -9.974036 -16.857940 26.900108 -0.000008 -0.000032 -10.776179 4.493253 -45.169311 23.014809 0.000003 -0.000037 5.825940 11.066360 54.708852 3.629984 -2.129999 -0.780004 0.000002 0.000000 0.000001 3.551146 -2.240053 -2.118376 0.000004 -0.000004 0.000002 2.159112 -0.963467 -1.116332 0.000003 -0.000003 -0.000001 10.514908 -2.197567 -0.041035 0.000000 0.000000 -0.000000 2.751831 0.139052 -0.102856 0.000000 0.000001 0.000000 2.353012 0.090487 -0.073402 -0.000000 0.000000 -0.000000 10.067116 -0.059571 0.139202 0.000000 -0.000000 -0.000000 3.909019 0.119070 -0.288412 0.000000 0.000000 0.000001 2.328400 0.059441 -0.019089 0.000000 -0.000000 -0.000000 9.468110 1.809832 0.132237 0.000000 -0.000000 -0.000000 3.281525 0.033939 -0.224064 -0.000000 0.000000 0.000000 2.245003 0.008387 -0.070198 0.000000 -0.000000 0.000000 8.490776 3.584151 -0.077774 0.000000 -0.000000 0.000000 2.532173 0.017037 -0.073093 -0.000000 0.000000 -0.000000 1.951210 -0.017005 0.025105 0.000000 -0.000000 -0.000000 -4.397822 1.485016 12.860619 -0.000002 0.000000 -0.000001 -8.757318 0.049050 -2.311996 117.113320 -30.204268 -3.190271 -26.899998 -0.000002 0.000013 47.460082 3.972220 9.020981 -23.014904 0.000005 0.000002 -90.000023 -0.000020 121.325402 -3.629977 -2.130000 -0.780001 0.000002 0.000000 0.000001 -3.551210 -2.240077 -2.117996 0.000005 -0.000004 -0.000000 -2.159096 -0.963469 -1.115996 -0.000001 0.000001 0.000001 -10.514886 -2.197567 -0.040994 0.000002 0.000004 0.000002 -2.751815 0.139050 -0.102993 -0.000003 -0.000002 -0.000000 -2.353011 0.090499 -0.073007 -0.000001 -0.000002 -0.000001 -10.067101 -0.059577 0.140000 0.000002 0.000003 0.000000 -3.909096 0.119084 -0.288993 0.000001 -0.000000 -0.000002 -2.328393 0.059431 -0.018999 0.000002 0.000001 -0.000001 -9.468111 1.809824 0.133003 0.000003 0.000003 -0.000000 -3.281616 0.033935 -0.224990 0.000001 0.000001 0.000000 -2.245024 0.008400 -0.070005 -0.000004 0.000003 0.000002 -8.490769 3.584147 -0.076995 0.000002 0.000003 0.000001 -2.532240 0.017034 -0.074012 -0.000005 0.000001 0.000000 -1.951210 -0.017007 0.026004 -0.000002 -0.000003 0.000000 10.061402 0.706228 -5.185758 -24.375214 -43.496796 -30.879961 -0.348570 0.819163 -45.582394 177.844766 141.790574 -178.125678 0.349149 1.708490 -42.332481 -12.234889 -1.610958 12.791465 0.070269 -12.888698 -8.126663 -0.000001 -0.000000 -0.000001 -10.060999 0.706229 -5.185785 16.512249 -11.802090 23.520779 0.348578 0.819167 -45.582401 0.771178 31.043568 -0.896500 -0.349180 1.708494 -42.332500 -1.961093 19.894304 2.329363 -0.070199 -12.888716 -8.126654 15.857652 -39.556757 5.733239 
-14.838800 16.961590 88.473526 47.222179 7.946079 6.438948 -0.000422 -2.543423 9.319808 0.057026 -0.016349 3.413480 -0.000001 0.000043 10.873105 -0.000002 0.000003 0.000000 -0.000002 5.951167 12.426403 3.113540 0.016777 -6.493905 0.000001 1.460485 13.979679 -4.238245 -8.818857 -5.418564 0.000001 -2.091493 5.870200 2.742634 27.519838 -8.595450 4.399136 1.485014 12.861008 -0.000001 -0.000002 -0.000003 8.757345 0.049053 -2.311980 -53.303852 -11.060526 -14.379094 26.900105 -0.000012 -0.000061 -11.175280 4.826528 -46.610710 23.014799 0.000003 -0.000043 5.389083 10.851563 53.080504 3.629992 -2.130002 -0.780000 0.000001 0.000002 0.000001 3.551128 -2.240059 -2.118387 0.000010 -0.000006 -0.000002 2.159120 -0.963470 -1.116328 0.000003 -0.000002 0.000002 10.514915 -2.197568 -0.041020 0.000000 0.000000 0.000000 2.751831 0.139054 -0.102848 0.000000 0.000000 0.000000 2.353012 0.090487 -0.073410 0.000000 0.000000 -0.000000 10.067116 -0.059575 0.139195 0.000000 -0.000000 -0.000000 3.909019 0.119065 -0.288418 0.000000 0.000000 0.000000 2.328392 0.059439 -0.019100 0.000000 0.000000 0.000000 9.468117 1.809831 0.132243 0.000000 -0.000000 0.000001 3.281524 0.033934 -0.224052 -0.000000 0.000000 -0.000000 2.245003 0.008391 -0.070194 -0.000000 0.000000 -0.000000 8.490776 3.584148 -0.077763 0.000000 -0.000000 0.000000 2.532181 0.017035 -0.073090 -0.000000 0.000000 0.000000 1.951218 -0.017009 0.025105 -0.000000 0.000000 -0.000000 -4.397820 1.485010 12.860577 -0.000003 -0.000001 0.000002 -8.757315 0.049055 -2.312001 116.429754 -12.769069 -3.088821 -26.899998 -0.000004 -0.000002 45.739793 1.527943 3.621450 -23.014904 0.000002 0.000003 -90.000023 -0.000008 120.783699 -3.629990 -2.129994 -0.779997 0.000001 -0.000003 -0.000002 -3.551194 -2.240063 -2.118000 -0.000001 -0.000006 -0.000000 -2.159074 -0.963463 -1.116003 0.000001 -0.000002 -0.000001 -10.514884 -2.197558 -0.040998 0.000002 0.000002 -0.000001 -2.751801 0.139048 -0.102997 -0.000001 0.000003 -0.000000 -2.352982 0.090488 -0.073004 -0.000001 -0.000001 0.000001 -10.067101 -0.059565 0.139999 0.000000 -0.000001 -0.000001 -3.909103 0.119069 -0.288998 0.000000 0.000001 -0.000000 -2.328414 0.059443 -0.018997 0.000000 -0.000003 0.000000 -9.468093 1.809835 0.133005 0.000001 -0.000000 -0.000002 -3.281602 0.033937 -0.224988 0.000001 -0.000002 -0.000001 -2.244980 0.008394 -0.070006 -0.000000 0.000004 0.000001 -8.490783 3.584151 -0.076990 0.000001 -0.000001 -0.000001 -2.532189 0.017044 -0.074012 -0.000000 0.000002 0.000000 -1.951171 -0.017011 0.026004 -0.000000 -0.000000 -0.000000 10.061403 0.706228 -5.185748 -23.313512 -47.353828 -30.454280 -0.348576 0.819164 -45.582394 177.995700 143.724037 -178.275970 0.349147 1.708496 -42.332493 -9.490856 0.807564 11.133592 0.070266 -12.888700 -8.126662 -0.000004 -0.000004 0.000001 -10.060997 0.706230 -5.185776 16.737882 -13.119572 24.538230 0.348583 0.819161 -45.582420 2.408003 37.020097 -5.373326 -0.349181 1.708492 -42.332504 -2.360119 17.316840 2.432132 -0.070198 -12.888708 -8.126657 19.080246 -48.988668 10.290940 
